<?xml version="1.0" standalone="no"?><!DOCTYPE svg PUBLIC "-//W3C//DTD SVG 1.1//EN" "http://www.w3.org/Graphics/SVG/1.1/DTD/svg11.dtd"><svg t="1630416733199" class="icon" viewBox="0 0 1024 1024" version="1.1" xmlns="http://www.w3.org/2000/svg" p-id="2164" xmlns:xlink="http://www.w3.org/1999/xlink" width="200" height="200"><defs><style type="text/css"></style></defs><path d="M558.545455 896a34.909091 34.909091 0 0 1-69.818182 0V340.759273a50.781091 50.781091 0 0 0-1.629091 1.349818l-2.676364 2.466909-250.274909 250.298182a34.909091 34.909091 0 0 1-51.642182-46.894546l2.257455-2.490181 250.298182-250.27491c47.057455-47.057455 123.182545-47.057455 172.474181-1.512727l3.723637 3.584L858.717091 546.443636a34.909091 34.909091 0 0 1-47.057455 51.479273l-2.490181-2.280727-247.319273-249.064727-3.258182-3.025455L558.545455 896zM826.181818 93.090909a34.909091 34.909091 0 0 1 0 69.818182h-605.090909a34.909091 34.909091 0 0 1 0-69.818182h605.090909z" p-id="2165" fill="#ea986c"></path></svg>