<?xml version="1.0" standalone="no"?><!DOCTYPE svg PUBLIC "-//W3C//DTD SVG 1.1//EN" "http://www.w3.org/Graphics/SVG/1.1/DTD/svg11.dtd"><svg class="icon" width="200px" height="200.00px" viewBox="0 0 1024 1024" version="1.1" xmlns="http://www.w3.org/2000/svg"><path fill="#ea986c" d="M702.88 864.4c-1.39 0-2.78-0.03-4.17-0.09-25.75-1.09-49.54-12.14-66.98-31.12l-129.58-141c-11.96-13.01-11.1-33.26 1.91-45.21l94.98-87.29a31.995 31.995 0 0 1 45.21 1.91l129.58 141c17.44 18.98 26.45 43.61 25.36 69.37-1.09 25.75-12.14 49.54-31.12 66.98-17.95 16.5-40.96 25.45-65.19 25.45zM570.93 672.45l107.92 117.44c12.12 13.19 32.72 14.07 45.92 1.94 6.39-5.87 10.11-13.89 10.48-22.56s-2.67-16.97-8.54-23.36L618.79 628.47l-47.86 43.98z"  /><path fill="#ea986c" d="M666.52 583.91L525.15 713.83c-13.01 11.96-33.26 11.1-45.21-1.91-11.96-13.01-11.1-33.26 1.91-45.21L623.22 536.8c13.01-11.96 33.26-11.1 45.21 1.91 11.96 13 11.1 33.24-1.91 45.2z"  /><path fill="#ea986c" d="M576 443c104.21 0 189-84.79 189-189 0-36.04-10.19-71.09-29.48-101.38a32.025 32.025 0 0 0-26.31-14.81c-10.7-0.23-20.8 4.9-26.92 13.68l-42.92 61.48c-9.9 14.18-29.5 17.67-43.68 7.76-14.18-9.9-17.67-29.49-7.77-43.68l41.46-59.38a31.992 31.992 0 0 0-20.74-49.84A189.724 189.724 0 0 0 576 65c-104.21 0-189 84.79-189 189 0 36.23 10.47 71.64 29.83 101.9l-20.12 30.9-166.49-181.17-47.12 43.3 177.56 193.22-91.51 140.53c-5.37-0.46-10.76-0.69-16.15-0.69-104.21 0-189 84.79-189 189 0 36.04 10.19 71.09 29.48 101.38a32.025 32.025 0 0 0 26.31 14.81c10.67 0.22 20.8-4.9 26.92-13.68l42.92-61.48c9.9-14.18 29.5-17.67 43.68-7.76 14.18 9.9 17.67 29.49 7.77 43.68l-41.46 59.38a31.992 31.992 0 0 0 20.74 49.84c10.74 1.87 21.72 2.82 32.65 2.82 104.21 0 189-84.79 189-189 0-34.77-9.22-67.95-26.85-97.19l65.68-100.87 69.17 75.27 47.12-43.3-80.25-87.33 48.75-74.86c3.46 0.2 6.92 0.3 10.37 0.3z m-53.27-51.69l-50.55 77.63-36.05 55.36-86.29 132.51c-7.47 11.47-6.82 26.42 1.62 37.19 17.35 22.15 26.52 48.78 26.52 77 0 56.29-37.41 104.01-88.66 119.62l4.21-6.03c30.1-43.12 19.51-102.69-23.61-132.79-16.59-11.58-35.61-17.14-54.46-17.14-30.13 0-59.81 14.22-78.33 40.75l-8.12 11.64c-0.68-5.29-1.02-10.65-1.02-16.04 0-68.93 56.08-125 125-125 8.55 0 17.09 0.87 25.39 2.58a31.985 31.985 0 0 0 33.27-13.88l93.7-143.89 36.05-55.36 41.1-63.12c7.69-11.8 6.75-27.24-2.3-38.03C461.37 311.85 451 283.33 451 254c0-56.29 37.41-104.01 88.66-119.62l-4.21 6.03c-30.1 43.12-19.51 102.69 23.61 132.79 43.12 30.1 102.69 19.51 132.79-23.61l8.12-11.64c0.68 5.29 1.02 10.65 1.02 16.04 0 68.93-56.08 125-125 125-7.04 0-14.14-0.6-21.1-1.78a32.013 32.013 0 0 0-32.16 14.1z"  /><path fill="#ea986c" d="M250.93 209.74l-66.3 61.1L64.25 154.86l84.35-74.9zM960 960H672c-17.6 0-32-14.4-32-32s14.4-32 32-32h288v64zM960 800h-96c-17.6 0-32-14.4-32-32s14.4-32 32-32h96v64zM959.5 640H800c-17.6 0-32-14.4-32-32s14.4-32 32-32h159.5c0.28 0 0.5 0.22 0.5 0.5v63c0 0.28-0.22 0.5-0.5 0.5z"  /></svg>