<?xml version="1.0" standalone="no"?><!DOCTYPE svg PUBLIC "-//W3C//DTD SVG 1.1//EN" "http://www.w3.org/Graphics/SVG/1.1/DTD/svg11.dtd"><svg class="icon" width="200px" height="200.00px" viewBox="0 0 1024 1024" version="1.1" xmlns="http://www.w3.org/2000/svg"><path fill="#ea986c" d="M490.666667 455.111111A177.777778 177.777778 0 1 0 312.888889 277.333333 178.346667 178.346667 0 0 0 490.666667 455.111111z m-154.737778 17.635556A249.173333 249.173333 0 1 1 739.555556 277.333333a252.586667 252.586667 0 0 1-94.151112 195.413334 426.666667 426.666667 0 0 1 307.484445 409.031111 106.951111 106.951111 0 0 1-106.666667 106.666666h-711.111111A106.951111 106.951111 0 0 1 28.444444 881.777778a426.666667 426.666667 0 0 1 307.484445-409.031111z m510.293333 444.586666c19.626667 0 35.555556-15.928889 35.555556-35.555555a356.408889 356.408889 0 0 0-355.555556-355.555556H455.111111a356.408889 356.408889 0 0 0-355.555555 355.555556 35.555556 35.555556 0 0 0 35.555555 35.555555h711.111111z" /></svg>